<?xml version="1.0" encoding="UTF-8"?>
<svg version="1.1" xmlns="http://www.w3.org/2000/svg" width="500" height="500">
<path d="M0 0 C165 0 330 0 500 0 C500 165 500 330 500 500 C335 500 170 500 0 500 C0 335 0 170 0 0 Z " fill="#FEFEFE" transform="translate(0,0)"/>
<path d="M0 0 C7.10778748 3.73239982 12.78592743 5.20976814 20.625 3.25 C21.285 0.28 21.945 -2.69 22.625 -5.75 C23.615 -5.75 24.605 -5.75 25.625 -5.75 C25.955 10.09 26.285 25.93 26.625 42.25 C31.98192503 36.95617106 31.98192503 36.95617106 37 31.4375 C39.70940529 28.29483395 42.46476145 25.20075184 45.25 22.125 C46.0028125 21.28195313 46.755625 20.43890625 47.53125 19.5703125 C48.77791885 18.18874291 50.04276783 16.82273744 51.34375 15.4921875 C53.81790649 12.86683255 54.625 11.67629201 54.625 8 C53.82542544 4.95577941 53.82542544 4.95577941 50.625 3.25 C48.57630926 2.80570562 46.51045707 2.43705805 44.4375 2.125 C43.35082031 1.95742187 42.26414062 1.78984375 41.14453125 1.6171875 C40.31308594 1.49601562 39.48164063 1.37484375 38.625 1.25 C38.625 0.26 38.625 -0.73 38.625 -1.75 C59.745 -1.75 80.865 -1.75 102.625 -1.75 C102.625 -0.76 102.625 0.23 102.625 1.25 C101.80515625 1.34796875 100.9853125 1.4459375 100.140625 1.546875 C99.06296875 1.69640625 97.9853125 1.8459375 96.875 2 C95.80765625 2.13921875 94.7403125 2.2784375 93.640625 2.421875 C90.18950232 3.36959263 88.86377485 4.50907004 86.625 7.25 C85.22004063 10.05991874 85.49382663 12.38863227 85.48696899 15.5329895 C85.48414771 16.18494478 85.48132643 16.83690006 85.47841966 17.50861156 C85.47005509 19.70383236 85.46873375 21.89900283 85.46728516 24.09423828 C85.46261778 25.66461327 85.45747435 27.2349869 85.45188904 28.80535889 C85.44059281 32.19495645 85.43216551 35.58454514 85.42576981 38.97415543 C85.41508504 44.34713251 85.39483395 49.72004668 85.37265015 55.09298706 C85.31075802 70.37494997 85.2568749 85.65691085 85.22363281 100.93896484 C85.2052049 109.37356537 85.17615857 117.808062 85.1356281 126.24258602 C85.11467662 130.7009869 85.099118 135.15925743 85.09682083 139.61771011 C85.0946508 143.82520108 85.0785456 148.03242172 85.05243111 152.23983002 C85.04532249 153.7714755 85.04309529 155.30315405 85.04653358 156.83481216 C85.0732589 171.02311825 84.71751364 187.72939572 75.09765625 199.046875 C66.72462895 207.00617625 55.79060065 208.41075753 44.6875 208.3125 C44.00365234 208.30798828 43.31980469 208.30347656 42.61523438 208.29882812 C40.95178396 208.2871956 39.2883795 208.26926694 37.625 208.25 C37.625 206.93 37.625 205.61 37.625 204.25 C41.625 202.91666667 45.625 201.58333333 49.625 200.25 C50.76045562 197.95465742 50.76045562 197.95465742 51.625 195.25 C51.99625 194.528125 52.3675 193.80625 52.75 193.0625 C54.11840193 188.66406521 54.75502231 184.7770647 53.625 180.25 C51.69340951 177.96680663 49.58937105 176.298989 47.2265625 174.46875 C44.18871007 171.87790889 41.92385468 169.07394751 39.5625 165.875 C38.80839844 164.85664063 38.05429687 163.83828125 37.27734375 162.7890625 C35.625 160.25 35.625 160.25 35.625 158.25 C34.965 158.25 34.305 158.25 33.625 158.25 C33.47804688 158.806875 33.33109375 159.36375 33.1796875 159.9375 C29.83390182 171.32086276 22.47011977 178.75500171 12.25 184.4375 C-4.48906407 192.3501345 -26.59504767 192.3765792 -44.375 188.25 C-45.28765625 187.9096875 -46.2003125 187.569375 -47.140625 187.21875 C-51.35703208 185.95586479 -55.37129588 185.7926059 -59.75 185.625 C-60.99716797 185.56699219 -60.99716797 185.56699219 -62.26953125 185.5078125 C-64.30435156 185.41425754 -66.33964416 185.33107287 -68.375 185.25 C-68.375 184.26 -68.375 183.27 -68.375 182.25 C-66.725 181.92 -65.075 181.59 -63.375 181.25 C-68.15804576 178.42518945 -72.97305505 178.73781559 -78.375 179.25 C-81.50569417 180.20464586 -81.50569417 180.20464586 -83.375 182.25 C-84.26158466 184.84122743 -84.26158466 184.84122743 -84.375 187.25 C-85.695 187.25 -87.015 187.25 -88.375 187.25 C-88.375 160.85 -88.375 134.45 -88.375 107.25 C-87.055 107.25 -85.735 107.25 -84.375 107.25 C-84.33012451 107.87865967 -84.28524902 108.50731934 -84.23901367 109.1550293 C-82.61633193 131.24815437 -80.15069953 152.24143081 -64.375 169.25 C-60.62359098 172.36275712 -56.73821089 175.06839456 -52.375 177.25 C-51.3277754 172.91058877 -51.16860777 168.64700052 -51.08691406 164.20605469 C-51.06019119 163.01232491 -51.06019119 163.01232491 -51.03292847 161.79447937 C-50.87884681 154.47718627 -50.79109644 147.15863453 -50.72293472 139.84008408 C-50.676721 134.93077753 -50.60918593 130.02385143 -50.49023438 125.11572266 C-50.37535458 120.35697362 -50.31502137 115.60036132 -50.2924118 110.84030914 C-50.27468697 109.03324942 -50.23796939 107.22626696 -50.18140411 105.4200058 C-49.63692425 95.20160357 -49.63692425 95.20160357 -53.71691895 86.23913574 C-56.49749009 83.94960436 -59.29781216 82.11212835 -62.375 80.25 C-72.90553204 71.58748079 -84.47093672 60.12567817 -87.375 46.25 C-88.57377896 31.8150478 -87.61741126 20.67668269 -78.18359375 9.234375 C-75.74498116 6.55874823 -73.31390476 4.36874529 -70.375 2.25 C-69.715 2.25 -69.055 2.25 -68.375 2.25 C-68.375 0.93 -68.375 -0.39 -68.375 -1.75 C-67.158125 -1.9975 -65.94125 -2.245 -64.6875 -2.5 C-59.48937964 -3.6450693 -54.45729067 -5.22607847 -49.390625 -6.84765625 C-32.04851419 -12.03681117 -15.56960327 -8.21859009 0 0 Z " fill="#A5A5A5" transform="translate(250.375,121.75)"/>
<path d="M0 0 C21.12 0 42.24 0 64 0 C64 0.99 64 1.98 64 3 C63.18015625 3.09796875 62.3603125 3.1959375 61.515625 3.296875 C60.43796875 3.44640625 59.3603125 3.5959375 58.25 3.75 C57.18265625 3.88921875 56.1153125 4.0284375 55.015625 4.171875 C51.56450232 5.11959263 50.23877485 6.25907004 48 9 C46.59504063 11.80991874 46.86882663 14.13863227 46.86196899 17.2829895 C46.85773707 18.26092242 46.85773707 18.26092242 46.85341966 19.25861156 C46.84505509 21.45383236 46.84373375 23.64900283 46.84228516 25.84423828 C46.83761778 27.41461327 46.83247435 28.9849869 46.82688904 30.55535889 C46.81559281 33.94495645 46.80716551 37.33454514 46.80076981 40.72415543 C46.79008504 46.09713251 46.76983395 51.47004668 46.74765015 56.84298706 C46.68575802 72.12494997 46.6318749 87.40691085 46.59863281 102.68896484 C46.5802049 111.12356537 46.55115857 119.558062 46.5106281 127.99258602 C46.48967662 132.4509869 46.474118 136.90925743 46.47182083 141.36771011 C46.4696508 145.57520108 46.4535456 149.78242172 46.42743111 153.98983002 C46.42032249 155.5214755 46.41809529 157.05315405 46.42153358 158.58481216 C46.4482589 172.77311825 46.09251364 189.47939572 36.47265625 200.796875 C28.09962895 208.75617625 17.16560065 210.16075753 6.0625 210.0625 C5.37865234 210.05798828 4.69480469 210.05347656 3.99023438 210.04882812 C2.32678396 210.0371956 0.6633795 210.01926694 -1 210 C-1 208.68 -1 207.36 -1 206 C3 204.66666667 7 203.33333333 11 202 C12.13346586 199.93080674 12.13346586 199.93080674 13 197 C13.37318359 195.85724609 13.37318359 195.85724609 13.75390625 194.69140625 C16.05276374 187.39503248 17.12314522 180.53449735 17.13371277 172.85862732 C17.13597833 172.1749265 17.13824388 171.49122567 17.14057809 170.78680664 C17.14686668 168.51467318 17.14609208 166.24260015 17.14526367 163.97045898 C17.14825827 162.33386153 17.15166149 160.69726478 17.15544128 159.06066895 C17.16425218 154.62899996 17.16661809 150.1973503 17.16725707 145.7656734 C17.16796891 142.99547866 17.1701057 140.22528881 17.17275429 137.45509529 C17.18199611 127.78719903 17.18609039 118.11931654 17.18530273 108.45141602 C17.18470136 99.44399799 17.19526794 90.43663973 17.2110464 81.42923683 C17.22412147 73.68893573 17.22948669 65.94865419 17.22884732 58.20834213 C17.22859245 53.58825422 17.23143839 48.96821952 17.24202538 44.34814262 C17.25170647 40.00527276 17.25178547 35.66250702 17.24450874 31.31963348 C17.24346311 29.72732707 17.24582452 28.13501417 17.2518692 26.54271889 C17.25959484 24.36648667 17.25494084 22.19061361 17.24723816 20.01438904 C17.24778293 18.7974961 17.24832769 17.58060316 17.24888897 16.32683468 C16.98945999 12.85911446 16.38949736 10.18504513 15 7 C11.7188698 4.81257986 9.66915644 4.45557194 5.8125 3.875 C4.18248047 3.62363281 4.18248047 3.62363281 2.51953125 3.3671875 C1.27236328 3.18542969 1.27236328 3.18542969 0 3 C0 2.01 0 1.02 0 0 Z " fill="#000000" transform="translate(289,120)"/>
<path d="M0 0 C0.33 0 0.66 0 1 0 C1 39.93 1 79.86 1 121 C-2.26785722 117.73214278 -4.62432558 115.37517618 -7.0859375 111.70703125 C-7.62130127 110.91611084 -8.15666504 110.12519043 -8.70825195 109.31030273 C-9.25827881 108.48602783 -9.80830566 107.66175293 -10.375 106.8125 C-11.52161129 105.11162572 -12.6687423 103.41110168 -13.81640625 101.7109375 C-14.36312988 100.89850586 -14.90985352 100.08607422 -15.47314453 99.24902344 C-17.89008829 95.68892015 -20.39818163 92.19717833 -22.92578125 88.71484375 C-24 87 -24 87 -24 85 C-24.90492188 85.46792969 -24.90492188 85.46792969 -25.828125 85.9453125 C-27.02695312 86.52925781 -27.02695312 86.52925781 -28.25 87.125 C-29.43335938 87.71667969 -29.43335938 87.71667969 -30.640625 88.3203125 C-33 89 -33 89 -34.94921875 88.40625 C-37.64423149 86.55824127 -40.08482289 84.5062642 -42.5625 82.375 C-48.1700084 77.60425065 -53.97946006 73.24282145 -60 69 C-58.64891034 66.03674056 -57.11293352 63.79214835 -54.9375 61.375 C-54.31746094 60.68148437 -53.69742188 59.98796875 -53.05859375 59.2734375 C-52.37925781 58.52320313 -51.69992188 57.77296875 -51 57 C-49.90365234 55.78183594 -49.90365234 55.78183594 -48.78515625 54.5390625 C-47.26366008 52.8485112 -45.74022552 51.15970241 -44.21484375 49.47265625 C-41.56850387 46.51827681 -38.98079538 43.5164428 -36.41015625 40.49609375 C-35 39 -35 39 -33 38 C-33 38.99 -33 39.98 -33 41 C-31.68 41 -30.36 41 -29 41 C-29.2475 39.783125 -29.495 38.56625 -29.75 37.3125 C-29.79884559 31.11887913 -25.84268799 27.88733919 -21.76733398 23.73632812 C-20.67271901 22.64155272 -19.57363144 21.55122768 -18.46972656 20.46582031 C-16.65670016 18.65761258 -14.97530833 16.75901022 -13.3125 14.8125 C-3.66964286 3.66964286 -3.66964286 3.66964286 0 0 Z " fill="#FEFEFE" transform="translate(305,138)"/>
<path d="M0 0 C7.0469419 4.60305296 12.90298991 9.19247312 17.3828125 16.390625 C17.76888672 17.00526611 18.15496094 17.61990723 18.55273438 18.25317383 C21.77954492 23.53645977 24.18039187 28.75894982 25.7578125 34.765625 C26.05816406 35.63445312 26.35851562 36.50328125 26.66796875 37.3984375 C27.45965478 40.65051303 27.58943586 42.49945656 26.7578125 45.765625 C23.64030612 50.49091042 19.42047493 54.34927118 15.34179688 58.23388672 C13.44558776 60.06755133 11.71390562 62.0048724 10.0078125 64.015625 C9.23244141 64.90507812 9.23244141 64.90507812 8.44140625 65.8125 C7.11097762 67.35592069 5.79336557 68.91038877 4.48046875 70.46875 C3.68511719 71.39171875 2.88976562 72.3146875 2.0703125 73.265625 C1.34457031 74.1215625 0.61882812 74.9775 -0.12890625 75.859375 C-2.2421875 77.765625 -2.2421875 77.765625 -6.2421875 77.765625 C-10.61894979 76.16721939 -14.00126147 74.12815765 -17.2421875 70.765625 C-18.80472998 65.81400374 -18.62650337 60.95658188 -18.45703125 55.8203125 C-18.44665035 54.36258304 -18.44058218 52.9048171 -18.43861389 51.447052 C-18.42329111 48.40115088 -18.37198891 45.35883666 -18.29174805 42.31396484 C-18.18972069 38.41857867 -18.15328381 34.52619024 -18.14064693 30.62959099 C-18.12788336 27.62324441 -18.09292085 24.61750944 -18.05002022 21.61145401 C-18.02980792 20.1754363 -18.01353126 18.73935744 -18.00132561 17.30324936 C-17.97843704 15.29541287 -17.9252701 13.28799107 -17.87084961 11.28076172 C-17.8465538 10.1404953 -17.822258 9.00022888 -17.79722595 7.82540894 C-17.01314191 3.50295571 -14.88556627 1.01232613 -11.4296875 -1.609375 C-7.23492228 -2.80787935 -3.79981987 -2.0918869 0 0 Z " fill="#FDFDFD" transform="translate(245.2421875,125.234375)"/>
<path d="M0 0 C2.45143927 0.85079363 4.66035022 1.85404909 7 3 C7 7 7 7 5.52734375 10.1640625 C3.55096244 14.53609281 3.50507543 18.63370734 3.5625 23.375 C3.56950928 24.63582397 3.56950928 24.63582397 3.57666016 25.92211914 C3.72298879 32.04115432 4.69226042 36.7728057 8 42 C9.64478551 44.87817199 10.24748229 46.90786982 10.22705078 50.21777344 C10.22689972 51.03832214 10.22674866 51.85887085 10.22659302 52.70428467 C10.21627045 53.58046448 10.20594788 54.45664429 10.1953125 55.359375 C10.1924826 56.26375305 10.18965271 57.1681311 10.18673706 58.09991455 C10.17555782 60.98341195 10.15045733 63.86659675 10.125 66.75 C10.11496728 68.70702676 10.10584194 70.66405839 10.09765625 72.62109375 C10.07562585 77.41418262 10.04111144 82.20703834 10 87 C4.40338737 83.42714139 -0.79036044 79.74337742 -5.625 75.1875 C-6.45946655 74.40548218 -6.45946655 74.40548218 -7.31079102 73.60766602 C-16.38512247 64.95527306 -25.88703755 53.67011501 -26.23828125 40.5859375 C-26.54234238 26.39050963 -25.02735731 16.69992396 -15 6 C-10.29092287 1.50412912 -6.76899246 -1.10765331 0 0 Z " fill="#020202" transform="translate(189,123)"/>
<path d="M0 0 C3.31384783 1.38805954 4.870426 2.80934737 6.84765625 5.7890625 C7.36432861 6.55702148 7.88100098 7.32498047 8.41333008 8.11621094 C9.22966919 9.35806152 9.22966919 9.35806152 10.0625 10.625 C11.2341453 12.37254986 12.40602358 14.11994353 13.578125 15.8671875 C14.15884766 16.73956055 14.73957031 17.61193359 15.33789062 18.51074219 C17.6314189 21.94564441 19.96774677 25.34995171 22.3125 28.75 C22.73926025 29.37124756 23.16602051 29.99249512 23.60571289 30.63256836 C26.43318071 34.74427359 29.28124539 38.84128879 32.13671875 42.93359375 C32.85754639 43.96709961 33.57837402 45.00060547 34.32104492 46.06542969 C35.74807025 48.11011315 37.1765636 50.15377302 38.60668945 52.19628906 C39.26241943 53.13569336 39.91814941 54.07509766 40.59375 55.04296875 C41.17833984 55.87852295 41.76292969 56.71407715 42.36523438 57.57495117 C46.98889804 64.43379991 46.98889804 64.43379991 47.0625 68.1875 C44.13226812 78.70186146 37.34191555 85.87494874 28.3515625 91.72265625 C11.41592809 101.16485242 -12.47551907 101.45908754 -31 97 C-32.68028822 96.36845134 -34.35210187 95.71179629 -36 95 C-36 94.67 -36 94.34 -36 94 C-21.15 94 -6.3 94 9 94 C8.24849977 90.72226496 8.24849977 90.72226496 5 89 C5.65226562 88.68289063 6.30453125 88.36578125 6.9765625 88.0390625 C13.94522911 84.318329 17.86726364 80.29430497 21 73 C23.50402608 63.4166903 22.84565464 53.64805219 18 45 C11.95307619 35.12572911 3.97672998 27.22089261 -5.6875 20.875 C-7.75832079 19.35611285 -8.80369178 18.50643345 -9.734375 16.10546875 C-10.07290847 12.70060329 -9.58963095 10.76091193 -7.48046875 8.0390625 C-6.27009826 6.83124016 -5.0189947 5.66254479 -3.7265625 4.54296875 C-1.76599982 2.92068189 -1.76599982 2.92068189 0 0 Z " fill="#030303" transform="translate(237,213)"/>
<path d="M0 0 C1.43349057 0.94292013 2.86529192 1.88840864 4.29638672 2.83496094 C5.0939035 3.36120056 5.89142029 3.88744019 6.71310425 4.42962646 C17.98085473 12.16700458 28.70036787 23.40865814 32 37 C33.07845425 47.04923274 31.8241849 56.31709102 25.50390625 64.4296875 C20.87804461 69.25980797 15.72202821 71.73390778 9.046875 72.13671875 C5.99154593 71.93264143 4.28163064 71.00506935 2 69 C-0.24568485 65.55108744 -0.24278285 62.63797469 -0.22705078 58.57910156 C-0.22689972 57.27805481 -0.22674866 55.97700806 -0.22659302 54.63653564 C-0.21638046 53.22123053 -0.20594848 51.80592699 -0.1953125 50.390625 C-0.19158071 48.93902786 -0.18873452 47.4874282 -0.18673706 46.03582764 C-0.17911364 42.22175093 -0.15947635 38.40782738 -0.1373291 34.59381104 C-0.11684278 30.69928051 -0.10772939 26.80472516 -0.09765625 22.91015625 C-0.07622915 15.2733678 -0.04210892 7.63670539 0 0 Z " fill="#FCFCFC" transform="translate(228,231)"/>
<path d="M0 0 C1.32 0 2.64 0 4 0 C4.04487549 0.62865967 4.08975098 1.25731934 4.13598633 1.9050293 C5.75674537 23.97197645 8.20698556 45.0335108 24 62 C27.5131116 64.93213191 31.13938924 67.54652774 35 70 C32.39647189 72.78359922 30.88844358 73.72871324 27 74 C25.700625 73.5359375 25.700625 73.5359375 24.375 73.0625 C18.60326492 71.24547229 12.56585346 71.02497569 6.875 73.1875 C4.59087492 75.39548758 4.25335763 76.87525593 4 80 C2.68 80 1.36 80 0 80 C0 53.6 0 27.2 0 0 Z " fill="#090909" transform="translate(162,229)"/>
<path d="M0 0 C0.99 0 1.98 0 3 0 C3.10126342 7.20813016 3.17140779 14.41607752 3.21972656 21.62475586 C3.23986533 24.07795059 3.26717818 26.53109719 3.30175781 28.98413086 C3.35017482 32.50646833 3.37294629 36.02817223 3.390625 39.55078125 C3.41127014 40.65086014 3.43191528 41.75093903 3.45318604 42.88435364 C3.45348816 43.90518539 3.45379028 44.92601715 3.45410156 45.9777832 C3.46298401 46.87713089 3.47186646 47.77647858 3.48101807 48.70307922 C3 51 3 51 0.97161865 52.81388855 C0.3209845 53.20530533 -0.32964966 53.59672211 -1 54 C-1.21914063 52.98421875 -1.43828125 51.9684375 -1.6640625 50.921875 C-3.69793253 41.93008625 -6.30435488 34.02326765 -11 26 C-11.37769531 25.33613281 -11.75539063 24.67226562 -12.14453125 23.98828125 C-16.68160297 16.85401654 -24.26593196 11.2564497 -32 8 C-32 7.67 -32 7.34 -32 7 C-30.35 7 -28.7 7 -27 7 C-26.67 6.01 -26.34 5.02 -26 4 C-25.39414063 4.34933594 -24.78828125 4.69867188 -24.1640625 5.05859375 C-16.77374806 9.07210298 -10.30877958 11.07719489 -2 9 C-1.34 6.03 -0.68 3.06 0 0 Z " fill="#030303" transform="translate(273,116)"/>
<path d="M0 0 C0.66 0 1.32 0 2 0 C2 42.24 2 84.48 2 128 C0 126 0 126 -0.24609566 123.87981987 C-0.24333028 122.55520335 -0.24333028 122.55520335 -0.24050903 121.2038269 C-0.24325836 120.19137909 -0.24600769 119.17893127 -0.24884033 118.13580322 C-0.24164978 117.02090515 -0.23445923 115.90600708 -0.22705078 114.75732422 C-0.22734283 113.5866037 -0.22763489 112.41588318 -0.22793579 111.20968628 C-0.22677919 107.99496203 -0.21673198 104.78041071 -0.20278788 101.56572104 C-0.19030592 98.20781292 -0.18911203 94.84990161 -0.18673706 91.49197388 C-0.18051481 85.13129983 -0.16409398 78.77069434 -0.14403808 72.41005051 C-0.1217022 65.16952276 -0.11069148 57.92899179 -0.10064721 50.68843818 C-0.07972836 35.79225389 -0.04453797 20.89613379 0 6 C-1.12768734 7.12271733 -2.25466818 8.24614431 -3.38134766 9.36987305 C-4.00901031 9.99540573 -4.63667297 10.62093842 -5.28335571 11.26542664 C-7.05620775 13.0567948 -8.73915758 14.89536192 -10.375 16.8125 C-13.8313656 20.82157271 -17.37512189 24.74589721 -20.9296875 28.66796875 C-22.60251999 30.55227252 -24.19022522 32.46080429 -25.75 34.4375 C-28.03211684 37.03657751 -29.99496881 38.34723285 -33 40 C-34.68477344 41.31037934 -36.35648543 42.63823078 -38 44 C-36.63389732 40.96273042 -35.06926193 38.79084974 -32.76953125 36.390625 C-31.81143555 35.38128906 -31.81143555 35.38128906 -30.83398438 34.3515625 C-30.16689453 33.65804687 -29.49980469 32.96453125 -28.8125 32.25 C-24.29504339 27.52127925 -19.85784334 22.75472661 -15.57397461 17.8125 C-13.54003885 15.4703348 -11.45971761 13.17197976 -9.375 10.875 C-6.85779116 8.09620728 -4.40369754 5.30322347 -2.0625 2.375 C-1.381875 1.59125 -0.70125 0.8075 0 0 Z " fill="#BABABA" transform="translate(305,133)"/>
<path d="M0 0 C0.66 0.66 1.32 1.32 2 2 C-16.48 2 -34.96 2 -54 2 C-39.1079135 -9.16906487 -16.20773168 -6.82213196 0 0 Z " fill="#181818" transform="translate(243,118)"/>
<path d="M0 0 C1.27385127 3.8215538 1.12353188 7.4068447 1.09765625 11.38671875 C1.0962413 12.20372757 1.09482635 13.02073639 1.09336853 13.86250305 C1.08777294 16.47087268 1.07522129 19.07915634 1.0625 21.6875 C1.05748443 23.45637897 1.05292162 25.22525928 1.04882812 26.99414062 C1.03780496 31.32946019 1.02054338 35.66471552 1 40 C-1.49079796 37.62450888 -2.79022963 35.62728588 -4.125 32.4375 C-4.62386719 31.25994141 -4.62386719 31.25994141 -5.1328125 30.05859375 C-5.41898438 29.37925781 -5.70515625 28.69992188 -6 28 C-6.33 27.34 -6.66 26.68 -7 26 C-7.26428545 22.92307667 -7.23154248 19.83701944 -7.25 16.75 C-7.270625 15.90308594 -7.29125 15.05617187 -7.3125 14.18359375 C-7.3445101 9.03797023 -6.91107486 5.43726945 -4 1 C-2 0 -2 0 0 0 Z " fill="#F4F4F4" transform="translate(199,130)"/>
<path d="M0 0 C4.19308641 0.22068876 7.41784803 3.17476466 10.6875 5.5625 C11.30383301 6.00779053 11.92016602 6.45308105 12.55517578 6.91186523 C17.62890585 10.62611112 22.57579798 14.51727679 27 19 C27 19.33 27 19.66 27 20 C18.35265086 20.69736687 12.3742778 18.62210649 5.66015625 13.0625 C2.01491673 9.58205431 -0.32875983 6.81317168 -2 2 C-1.34 1.34 -0.68 0.68 0 0 Z " fill="#080808" transform="translate(243,207)"/>
<path d="M0 0 C11.51785714 5.89285714 11.51785714 5.89285714 13 10 C8.66666667 14.33333333 4.33333333 18.66666667 0 23 C0 15.41 0 7.82 0 0 Z " fill="#050505" transform="translate(228,196)"/>
<path d="M0 0 C0.33 0 0.66 0 1 0 C0.95875 0.9075 0.9175 1.815 0.875 2.75 C1.64147771 6.08707 1.64147771 6.08707 4.08203125 7.25390625 C8.62933546 9.10146163 13.09718949 10.48391468 18 11 C18 11.99 18 12.98 18 14 C11.4 14 4.8 14 -2 14 C-1.34 9.38 -0.68 4.76 0 0 Z " fill="#A2A2A2" transform="translate(334,293)"/>
<path d="M0 0 C0.33 0 0.66 0 1 0 C1 2.64 1 5.28 1 8 C0.01 8 -0.98 8 -2 8 C-2.125 5.125 -2.125 5.125 -2 2 C-1.34 1.34 -0.68 0.68 0 0 Z " fill="#101010" transform="translate(275,171)"/>
</svg>
